# xmcd CD database file
#
# Track frame offsets:
#	150
#	18119
#	34483
#	49255
#	63398
#	87448
#	110292
#	122419
#	135461
#	151328
#	164548
#	185640
#	203537
#	224498
#	241688
#	258936
#	276356
#	294054
#	313489
#	329032
#
# Disc length: 4622 seconds
#
# Revision: 0
# Processed by: cddbd v1.5.1PL0 Copyright (c) Steve Scherf et al.
# Submitted via: CDex 1.51
#
DISCID=26120c14
DTITLE=Bad Company - Run With The Pack/Dangerous Age
DYEAR=1988
DGENRE=Blues
TTITLE0=Live For The Music
TTITLE1=Simple Man
TTITLE2=Honey Child
TTITLE3=Love Me, Somebody
TTITLE4=Run With The Pack
TTITLE5=Silver, Blue and Gold
TTITLE6=Young Blood
TTITLE7=Do Right By Your Woman
TTITLE8=Sweet Lil Sister
TTITLE9=Fade Away
TTITLE10=One Night
TTITLE11=Shake it Up
TTITLE12=No Smoke Without a Fire
TTITLE13=Bad Man
TTITLE14=Dangerous Age
TTITLE15=Dirty Boy
TTITLE16=Rock of America
TTITLE17=Something About You
TTITLE18=The Way That it Goes
TTITLE19=Love Attack
EXTD=YEAR: 1988
EXTT0=
EXTT1=
EXTT2=
EXTT3=
EXTT4=
EXTT5=
EXTT6=
EXTT7=
EXTT8=
EXTT9=
EXTT10=
EXTT11=
EXTT12=
EXTT13=
EXTT14=
EXTT15=
EXTT16=
EXTT17=
EXTT18=
EXTT19=
PLAYORDER=
